<svg xmlns="http://www.w3.org/2000/svg" xmlns:xlink="http://www.w3.org/1999/xlink" xmlns:svgjs="http://svgjs.com/svgjs" version="1.1" width="512" height="512" x="0" y="0" viewBox="0 0 512 512" style="enable-background:new 0 0 512 512" xml:space="preserve" class=""><g><linearGradient id="a" x1="256" x2="256" y1="512" y2="0" gradientUnits="userSpaceOnUse"><stop stop-opacity="1" stop-color="#addcff" offset="0"/><stop stop-opacity="1" stop-color="#eaf6ff" offset="0.503"/><stop stop-opacity="1" stop-color="#ffffff" offset="0.7297297297297297"/><stop stop-opacity="1" stop-color="#ffffff" offset="1"/></linearGradient><linearGradient id="b" x1="256" x2="256" y1="407" y2="105" gradientUnits="userSpaceOnUse"><stop stop-opacity="1" stop-color="#00c0ff" offset="0"/><stop stop-opacity="1" stop-color="#ff55b7" offset="1"/></linearGradient><circle cx="256" cy="256" r="256" fill="url(#a)" data-original="url(#a)"/><path fill="url(#b)" d="m267.485 253.398-28.868-28.868-40.959 46.086 37.455-14.052a8.891 8.891 0 0 1 9.403 2.039l28.868 28.868 40.959-46.086-37.455 14.052a8.9 8.9 0 0 1-9.403-2.039zM256 105c-83.255 0-151 67.737-151 151 0 28.989 8.171 56.963 23.68 81.216l-23.039 57.605a8.875 8.875 0 0 0 1.96 9.576 8.886 8.886 0 0 0 9.576 1.969l57.614-23.047C199.028 398.829 227.011 407 256 407c83.255 0 151-67.737 151-151s-67.745-151-151-151zm95.468 121.369-71.059 79.941a8.9 8.9 0 0 1-6.645 2.984 8.877 8.877 0 0 1-6.28-2.602l-31.487-31.487-65.698 24.643a8.88 8.88 0 0 1-10.444-3.296 8.886 8.886 0 0 1 .677-10.921l71.059-79.941a8.929 8.929 0 0 1 6.384-2.984c2.567-.026 4.823.876 6.54 2.602l31.487 31.487 65.698-24.643a8.878 8.878 0 0 1 10.444 3.296 8.886 8.886 0 0 1-.676 10.921z" data-original="url(#b)"/></g></svg>